<svg width="20" height="20" viewBox="0 0 20 20" fill="none" xmlns="http://www.w3.org/2000/svg">
<g clip-path="url(#clip0_2743_18)">
<path d="M6.33696 19.236L6.33686 19.236C5.98505 19.588 5.41489 19.5879 5.06346 19.2361L5.06329 19.236C4.71172 18.8844 4.71174 18.3141 5.06328 17.9626L4.70998 17.6093L5.06329 17.9626L12.6727 10.3534L13.0263 9.99986L12.6727 9.6463L5.06358 2.03747C5.06356 2.03744 5.06353 2.03742 5.06351 2.03739C4.71189 1.68555 4.71202 1.11533 5.06351 0.763836L5.06358 0.763765C5.41509 0.412118 5.98535 0.412015 6.33717 0.763836L6.33717 0.763839L14.9368 9.3633C14.9368 9.36333 14.9368 9.36336 14.9369 9.36339C15.1128 9.5394 15.2004 9.7687 15.2004 9.99981C15.2004 10.2311 15.1125 10.4607 14.9366 10.6366L6.33696 19.236Z" fill="#1890FF" stroke="#1890FF"/>
</g>
<defs>
<clipPath id="clip0_2743_18">
<rect width="20" height="20" fill="white"/>
</clipPath>
</defs>
</svg>
